<svg width="161" height="48" viewBox="0 0 161 48" fill="none" xmlns="http://www.w3.org/2000/svg">
<path d="M67.196 26.52L64.82 20.208C64.628 19.72 64.432 19.1 64.232 18.348C64.144 18.724 64.048 19.072 63.944 19.392C63.84 19.704 63.744 19.98 63.656 20.22L61.28 26.52H67.196ZM72.512 33H70.34C70.092 33 69.892 32.94 69.74 32.82C69.588 32.692 69.472 32.536 69.392 32.352L67.952 28.536H60.512L59.072 32.352C59.008 32.512 58.896 32.66 58.736 32.796C58.576 32.932 58.376 33 58.136 33H55.964L62.816 15.72H65.66L72.512 33ZM76.6297 15.24V33H74.0497V15.24H76.6297ZM82.4422 15.24V33H79.8622V15.24H82.4422ZM94.2913 20.76V33H91.7113V20.76H94.2913ZM94.7233 17.064C94.7233 17.296 94.6753 17.516 94.5793 17.724C94.4913 17.932 94.3673 18.116 94.2073 18.276C94.0473 18.428 93.8593 18.552 93.6433 18.648C93.4353 18.736 93.2113 18.78 92.9713 18.78C92.7393 18.78 92.5193 18.736 92.3113 18.648C92.1113 18.552 91.9353 18.428 91.7833 18.276C91.6313 18.116 91.5073 17.932 91.4113 17.724C91.3233 17.516 91.2793 17.296 91.2793 17.064C91.2793 16.824 91.3233 16.6 91.4113 16.392C91.5073 16.184 91.6313 16.004 91.7833 15.852C91.9353 15.692 92.1113 15.568 92.3113 15.48C92.5193 15.384 92.7393 15.336 92.9713 15.336C93.2113 15.336 93.4353 15.384 93.6433 15.48C93.8593 15.568 94.0473 15.692 94.2073 15.852C94.3673 16.004 94.4913 16.184 94.5793 16.392C94.6753 16.6 94.7233 16.824 94.7233 17.064ZM99.9449 22.38C100.209 22.108 100.481 21.864 100.761 21.648C101.049 21.424 101.353 21.232 101.673 21.072C101.993 20.912 102.333 20.788 102.693 20.7C103.053 20.612 103.445 20.568 103.869 20.568C104.541 20.568 105.129 20.68 105.633 20.904C106.145 21.128 106.573 21.444 106.917 21.852C107.269 22.26 107.533 22.752 107.709 23.328C107.885 23.896 107.973 24.524 107.973 25.212V33H105.405V25.212C105.405 24.388 105.213 23.748 104.829 23.292C104.453 22.836 103.877 22.608 103.101 22.608C102.525 22.608 101.989 22.74 101.493 23.004C101.005 23.268 100.545 23.628 100.113 24.084V33H97.5329V20.76H99.0929C99.4449 20.76 99.6689 20.924 99.7649 21.252L99.9449 22.38ZM133.679 24.36C133.679 25.64 133.471 26.82 133.055 27.9C132.639 28.98 132.051 29.912 131.291 30.696C130.539 31.472 129.631 32.08 128.567 32.52C127.511 32.96 126.335 33.18 125.039 33.18C123.751 33.18 122.575 32.96 121.511 32.52C120.455 32.08 119.547 31.472 118.787 30.696C118.027 29.912 117.439 28.98 117.023 27.9C116.607 26.82 116.399 25.64 116.399 24.36C116.399 23.08 116.607 21.9 117.023 20.82C117.439 19.74 118.027 18.808 118.787 18.024C119.547 17.24 120.455 16.628 121.511 16.188C122.575 15.748 123.751 15.528 125.039 15.528C126.335 15.528 127.511 15.748 128.567 16.188C129.631 16.628 130.539 17.24 131.291 18.024C132.051 18.808 132.639 19.74 133.055 20.82C133.471 21.9 133.679 23.08 133.679 24.36ZM130.811 24.36C130.811 23.368 130.675 22.476 130.403 21.684C130.139 20.892 129.755 20.22 129.251 19.668C128.755 19.116 128.151 18.692 127.439 18.396C126.727 18.1 125.927 17.952 125.039 17.952C124.159 17.952 123.363 18.1 122.651 18.396C121.939 18.692 121.331 19.116 120.827 19.668C120.323 20.22 119.935 20.892 119.663 21.684C119.391 22.476 119.255 23.368 119.255 24.36C119.255 25.36 119.391 26.256 119.663 27.048C119.935 27.84 120.323 28.512 120.827 29.064C121.331 29.608 121.939 30.028 122.651 30.324C123.363 30.612 124.159 30.756 125.039 30.756C125.927 30.756 126.727 30.612 127.439 30.324C128.151 30.028 128.755 29.608 129.251 29.064C129.755 28.512 130.139 27.84 130.403 27.048C130.675 26.256 130.811 25.36 130.811 24.36ZM138.476 22.38C138.74 22.108 139.012 21.864 139.292 21.648C139.58 21.424 139.884 21.232 140.204 21.072C140.524 20.912 140.864 20.788 141.224 20.7C141.584 20.612 141.976 20.568 142.4 20.568C143.072 20.568 143.66 20.68 144.164 20.904C144.676 21.128 145.104 21.444 145.448 21.852C145.8 22.26 146.064 22.752 146.24 23.328C146.416 23.896 146.504 24.524 146.504 25.212V33H143.936V25.212C143.936 24.388 143.744 23.748 143.36 23.292C142.984 22.836 142.408 22.608 141.632 22.608C141.056 22.608 140.52 22.74 140.024 23.004C139.536 23.268 139.076 23.628 138.644 24.084V33H136.064V20.76H137.624C137.976 20.76 138.2 20.924 138.296 21.252L138.476 22.38ZM157.545 25.5C157.545 25.068 157.481 24.668 157.353 24.3C157.233 23.924 157.053 23.6 156.813 23.328C156.573 23.048 156.273 22.832 155.913 22.68C155.561 22.52 155.153 22.44 154.689 22.44C153.753 22.44 153.017 22.708 152.481 23.244C151.945 23.78 151.605 24.532 151.461 25.5H157.545ZM151.389 27.084C151.421 27.78 151.529 28.384 151.713 28.896C151.897 29.4 152.141 29.82 152.445 30.156C152.757 30.492 153.125 30.744 153.549 30.912C153.981 31.072 154.461 31.152 154.989 31.152C155.493 31.152 155.929 31.096 156.297 30.984C156.665 30.864 156.985 30.736 157.257 30.6C157.529 30.456 157.761 30.328 157.953 30.216C158.145 30.096 158.321 30.036 158.481 30.036C158.689 30.036 158.849 30.116 158.961 30.276L159.693 31.224C159.389 31.584 159.045 31.888 158.661 32.136C158.277 32.384 157.869 32.588 157.437 32.748C157.005 32.9 156.561 33.008 156.105 33.072C155.649 33.144 155.205 33.18 154.773 33.18C153.925 33.18 153.137 33.04 152.409 32.76C151.689 32.472 151.061 32.052 150.525 31.5C149.997 30.948 149.581 30.264 149.277 29.448C148.981 28.632 148.833 27.692 148.833 26.628C148.833 25.78 148.965 24.988 149.229 24.252C149.501 23.516 149.885 22.876 150.381 22.332C150.885 21.788 151.493 21.36 152.205 21.048C152.925 20.728 153.737 20.568 154.641 20.568C155.393 20.568 156.089 20.692 156.729 20.94C157.369 21.18 157.921 21.536 158.385 22.008C158.849 22.48 159.209 23.06 159.465 23.748C159.729 24.428 159.861 25.204 159.861 26.076C159.861 26.476 159.817 26.744 159.729 26.88C159.641 27.016 159.481 27.084 159.249 27.084H151.389Z" fill="#F2F2F7"/>
<circle cx="24" cy="24" r="8" fill="#F2F2F7"/>
<circle cx="24" cy="24" r="22" stroke="#F2F2F7" stroke-width="4"/>
</svg>
